<?xml version="1.0" encoding="utf-8"?><svg xmlns="http://www.w3.org/2000/svg" xmlns:xlink="http://www.w3.org/1999/xlink"><symbol viewBox="0 0 11 18" id="arrow" xmlns="http://www.w3.org/2000/svg"><path d="M1.49998 1.00002L9.27815 8.7782L1.49998 16.5564" stroke-width="2"/></symbol><symbol viewBox="0 0 21 12" id="arrow-right" xmlns="http://www.w3.org/2000/svg"><path d="M10.59 1.41L14.17 5H0V7H14.17L10.58 10.59L12 12L18 6L12 0L10.59 1.41ZM19 0V12H21V0H19Z"/></symbol><symbol viewBox="0 0 25 25" id="ok" xmlns="http://www.w3.org/2000/svg"><path d="M10.7106 8.32552C10.7106 9.35607 11.546 10.1916 12.5766 10.1916C13.6071 10.1916 14.4426 9.35607 14.4426 8.32552C14.4426 7.29496 13.6071 6.4595 12.5766 6.4595C11.546 6.4595 10.7106 7.29496 10.7106 8.32552Z"/><path fill-rule="evenodd" clip-rule="evenodd" d="M12.5 25C19.4036 25 25 19.4036 25 12.5C25 5.59644 19.4036 0 12.5 0C5.59644 0 0 5.59644 0 12.5C0 19.4036 5.59644 25 12.5 25ZM8.06251 8.32546C8.06251 5.83243 10.0835 3.81137 12.5766 3.81137C15.0697 3.81137 17.0907 5.83243 17.0907 8.32546C17.0907 10.8185 15.0697 12.8397 12.5766 12.8397C10.0835 12.8397 8.06251 10.8185 8.06251 8.32546ZM17.1176 15.1617C17.0604 15.2076 15.9774 16.0634 14.1702 16.4316L16.8981 19.1351C17.3778 19.6141 17.3784 20.3912 16.8994 20.8709C16.4205 21.3506 15.6435 21.3514 15.1636 20.8723L12.5153 18.2933L10.1099 20.8557C9.86912 21.1055 9.54789 21.2311 9.22631 21.2311C8.91959 21.2311 8.61261 21.117 8.37443 20.8873C7.88644 20.4168 7.8723 19.6398 8.34283 19.1518L10.932 16.4459C9.07424 16.0864 7.94659 15.2083 7.88852 15.1617C7.3597 14.7376 7.27476 13.9651 7.69885 13.4362C8.12288 12.9074 8.8953 12.8225 9.42424 13.2465C9.4354 13.2556 10.6149 14.1416 12.5153 14.1429C14.4157 14.1416 15.5707 13.2556 15.5819 13.2465C16.1109 12.8225 16.8833 12.9074 17.3073 13.4362C17.7314 13.9651 17.6464 14.7376 17.1176 15.1617Z"/></symbol><symbol viewBox="0 0 410 395" id="star" xmlns="http://www.w3.org/2000/svg"><path opacity="0.991" fill-rule="evenodd" clip-rule="evenodd" d="M197.936 0.35483C212.045 -1.33297 223.878 3.00043 233.436 13.3548C250.114 44.7088 266.28 76.3758 281.936 108.355C316.519 114.177 351.186 119.677 385.936 124.855C404.455 133.056 412.288 147.223 409.436 167.355C408.209 172.373 406.209 177.04 403.436 181.355C378.769 206.022 354.103 230.688 329.436 255.355C334.656 289.51 340.156 323.677 345.936 357.855C342.851 383.272 328.518 395.272 302.936 393.855C298.799 392.921 294.799 391.587 290.936 389.855C262.212 374.493 233.212 359.66 203.936 345.355C173.222 361.712 142.222 377.545 110.936 392.855C90.5456 397.076 75.7126 389.91 66.4356 371.355C65.0246 367.135 64.1916 362.802 63.9356 358.355C69.8776 323.375 75.3776 288.375 80.4356 253.355C55.7686 229.355 31.1023 205.355 6.43555 181.355C-0.989545 168.896 -1.98955 155.896 3.43555 142.355C8.10915 134.016 14.9426 128.183 23.9356 124.855C58.6026 119.522 93.2686 114.188 127.936 108.855C143.548 78.1298 159.048 47.2968 174.436 16.3548C180.281 7.99523 188.114 2.66193 197.936 0.35483Z"/></symbol><symbol viewBox="0 0 25 25" id="vk" xmlns="http://www.w3.org/2000/svg"><g clip-path="url(#eclip0_370726_103)"><path d="M12.5 0C5.59815 0 0 5.59815 0 12.5C0 19.4018 5.59815 25 12.5 25C19.4018 25 25 19.4018 25 12.5C25 5.59815 19.4018 0 12.5 0ZM18.8394 13.8548C19.4274 14.4172 20.0409 14.954 20.5521 15.593C20.7822 15.8742 21.0122 16.1554 21.1656 16.4877C21.3957 16.9478 21.1912 17.4591 20.7822 17.4846H18.226C17.5613 17.5358 17.0501 17.2801 16.59 16.82C16.2321 16.4622 15.8998 16.0787 15.5675 15.6953C15.4397 15.5419 15.2863 15.3885 15.1073 15.2863C14.7495 15.0562 14.4427 15.1329 14.2638 15.4908C14.0593 15.8742 14.0082 16.2832 13.9826 16.6922C13.957 17.3057 13.7781 17.4591 13.1646 17.4846C11.8609 17.5358 10.6339 17.3568 9.50919 16.6922C8.51226 16.1043 7.71983 15.3118 7.05521 14.3916C5.72597 12.6022 4.72903 10.6339 3.80879 8.61451C3.60429 8.15439 3.75767 7.92433 4.26891 7.89876C5.11247 7.8732 5.93046 7.8732 6.77402 7.89876C7.10633 7.89876 7.33639 8.10326 7.46421 8.41001C7.92433 9.50919 8.46114 10.5828 9.15132 11.5542C9.33026 11.8098 9.53475 12.0654 9.79038 12.2699C10.0971 12.4744 10.3016 12.3977 10.455 12.0654C10.5317 11.8609 10.5828 11.6309 10.6084 11.4008C10.6851 10.6339 10.6851 9.86707 10.5572 9.10019C10.4806 8.58895 10.2249 8.2822 9.73925 8.17995C9.48363 8.12883 9.53476 8.05214 9.637 7.89876C9.8415 7.6687 10.046 7.51533 10.4294 7.51533H13.318C13.7781 7.61758 13.8804 7.79652 13.9315 8.25664V11.4775C13.9315 11.6564 14.0082 12.1932 14.3405 12.2955C14.5961 12.3722 14.775 12.1677 14.9284 12.0143C15.6186 11.273 16.1043 10.4039 16.5644 9.50919C16.7689 9.10019 16.9223 8.6912 17.1012 8.2822C17.229 7.97545 17.408 7.82208 17.7658 7.82208H20.5521C20.6288 7.82208 20.7055 7.82208 20.8078 7.84764C21.2679 7.92433 21.3957 8.12883 21.2679 8.58895C21.0378 9.30469 20.6033 9.91819 20.1687 10.5061C19.7086 11.1452 19.1973 11.7587 18.7372 12.4233C18.2771 13.0368 18.3026 13.3435 18.8394 13.8548Z"/></g><defs><clipPath id="eclip0_370726_103"><rect width="25" height="25"/></clipPath></defs></symbol></svg>