<svg width="410" height="395" viewBox="0 0 410 395" fill="none" xmlns="http://www.w3.org/2000/svg">
<path opacity="0.991" fill-rule="evenodd" clip-rule="evenodd" d="M197.936 0.35483C212.045 -1.33297 223.878 3.00043 233.436 13.3548C250.114 44.7088 266.28 76.3758 281.936 108.355C316.519 114.177 351.186 119.677 385.936 124.855C404.455 133.056 412.288 147.223 409.436 167.355C408.209 172.373 406.209 177.04 403.436 181.355C378.769 206.022 354.103 230.688 329.436 255.355C334.656 289.51 340.156 323.677 345.936 357.855C342.851 383.272 328.518 395.272 302.936 393.855C298.799 392.921 294.799 391.587 290.936 389.855C262.212 374.493 233.212 359.66 203.936 345.355C173.222 361.712 142.222 377.545 110.936 392.855C90.5456 397.076 75.7126 389.91 66.4356 371.355C65.0246 367.135 64.1916 362.802 63.9356 358.355C69.8776 323.375 75.3776 288.375 80.4356 253.355C55.7686 229.355 31.1023 205.355 6.43555 181.355C-0.989545 168.896 -1.98955 155.896 3.43555 142.355C8.10915 134.016 14.9426 128.183 23.9356 124.855C58.6026 119.522 93.2686 114.188 127.936 108.855C143.548 78.1298 159.048 47.2968 174.436 16.3548C180.281 7.99523 188.114 2.66193 197.936 0.35483Z" fill="black"/>
</svg>
