<?xml version="1.0" encoding="utf-8"?><svg viewBox="0 0 410 395" xmlns="http://www.w3.org/2000/svg" xmlns:xlink="http://www.w3.org/1999/xlink"><style>:root>svg{display:none}:root>svg:target{display:block}</style><svg fill="none" viewBox="0 0 11 18" id="arrow" xmlns="http://www.w3.org/2000/svg"><path d="m1.5 1 7.778 7.778L1.5 16.556" stroke="#F0BF5F" stroke-width="2"/></svg><svg fill="none" viewBox="0 0 21 12" id="arrow-right" xmlns="http://www.w3.org/2000/svg"><path d="M10.59 1.41 14.17 5H0v2h14.17l-3.59 3.59L12 12l6-6-6-6-1.41 1.41ZM19 0v12h2V0h-2Z" fill="#C93"/></svg><svg fill="none" viewBox="0 0 25 25" id="ok" xmlns="http://www.w3.org/2000/svg"><path d="M10.71 8.326a1.866 1.866 0 1 0 3.733 0 1.866 1.866 0 0 0-3.732 0Z" fill="#999"/><path fill-rule="evenodd" clip-rule="evenodd" d="M12.5 25C19.404 25 25 19.404 25 12.5S19.404 0 12.5 0 0 5.596 0 12.5 5.596 25 12.5 25ZM8.063 8.325a4.514 4.514 0 1 1 9.028 0 4.514 4.514 0 0 1-9.028 0Zm9.055 6.837c-.058.046-1.14.901-2.948 1.27l2.728 2.703a1.227 1.227 0 1 1-1.734 1.737l-2.649-2.579-2.405 2.563a1.223 1.223 0 0 1-1.736.031 1.227 1.227 0 0 1-.031-1.735l2.589-2.706c-1.858-.36-2.985-1.238-3.043-1.284a1.228 1.228 0 0 1 1.535-1.916c.011.01 1.19.896 3.091.897 1.9-.001 3.056-.887 3.067-.897a1.227 1.227 0 0 1 1.536 1.916Z" fill="#999"/></svg><svg fill="none" viewBox="0 0 410 395" id="star" xmlns="http://www.w3.org/2000/svg"><path opacity=".991" fill-rule="evenodd" clip-rule="evenodd" d="M197.936.355c14.109-1.688 25.942 2.645 35.5 13a3175.087 3175.087 0 0 1 48.5 95 5581.537 5581.537 0 0 0 104 16.5c18.519 8.201 26.352 22.368 23.5 42.5a45.864 45.864 0 0 1-6 14l-74 74a6541.717 6541.717 0 0 0 16.5 102.5c-3.085 25.417-17.418 37.417-43 36a63.372 63.372 0 0 1-12-4 2669.669 2669.669 0 0 0-87-44.5 3048.258 3048.258 0 0 1-93 47.5c-20.39 4.221-35.223-2.945-44.5-21.5a49.849 49.849 0 0 1-2.5-13 4281.892 4281.892 0 0 0 16.5-105l-74-72c-7.426-12.459-8.426-25.459-3-39 4.673-8.339 11.507-14.172 20.5-17.5l104-16a12009.241 12009.241 0 0 0 46.5-92.5c5.845-8.36 13.678-13.693 23.5-16Z" fill="#000"/></svg><svg fill="none" viewBox="0 0 25 25" id="vk" xmlns="http://www.w3.org/2000/svg"><g clip-path="url(#ea)"><path d="M12.5 0C5.598 0 0 5.598 0 12.5S5.598 25 12.5 25 25 19.402 25 12.5 19.402 0 12.5 0Zm6.34 13.855c.587.562 1.2 1.099 1.712 1.738.23.281.46.562.614.895.23.46.025.971-.384.997h-2.556c-.665.05-1.176-.205-1.636-.665-.358-.358-.69-.741-1.022-1.125a1.762 1.762 0 0 0-.46-.409c-.359-.23-.665-.153-.844.205-.205.383-.256.792-.281 1.201-.026.614-.205.767-.818.793-1.304.05-2.531-.128-3.656-.793-.997-.588-1.79-1.38-2.454-2.3-1.329-1.79-2.326-3.758-3.246-5.777-.205-.46-.051-.69.46-.716a40.93 40.93 0 0 1 2.505 0c.332 0 .562.204.69.511.46 1.1.997 2.173 1.687 3.144.18.256.384.511.64.716.306.204.51.128.664-.205.077-.204.128-.434.153-.664a8.668 8.668 0 0 0-.05-2.3c-.077-.512-.333-.819-.819-.921-.255-.051-.204-.128-.102-.281.204-.23.409-.384.792-.384h2.889c.46.103.562.282.614.742v3.22c0 .18.076.716.409.819.255.076.434-.128.587-.282.69-.741 1.176-1.61 1.636-2.505.205-.409.358-.818.537-1.227.128-.307.307-.46.665-.46h2.786c.077 0 .154 0 .256.026.46.076.588.28.46.741-.23.716-.665 1.33-1.1 1.917-.46.64-.97 1.253-1.43 1.917-.46.614-.435.92.101 1.432Z" fill="#999"/></g><defs><clipPath id="ea"><path fill="#fff" d="M0 0h25v25H0z"/></clipPath></defs></svg></svg>